<?xml version="1.0" encoding="UTF-8"?>
<svg id="ec-wordmark" xmlns="http://www.w3.org/2000/svg" xmlns:xlink="http://www.w3.org/1999/xlink" viewBox="-1 -1 398.5 110.5"><path d="M221.46,36.88v7.32c0,.77-.62,1.39-1.39,1.39h-26.85c-.77,0-1.39-.62-1.39-1.39V2.06c0-.77.62-1.39,1.39-1.39h8.8c.77,0,1.39.62,1.39,1.39v32.73c0,.38.31.7.7.7h15.96c.77,0,1.39.62,1.39,1.39ZM163.13,45.59h-17.53c-.77,0-1.39-.62-1.39-1.39V2.06c0-.77.62-1.39,1.39-1.39h17.47c14.14,0,24.31,8.49,24.31,22.42,0,13.94-10.17,22.5-24.25,22.5ZM175.53,23.1c0-6.94-4.18-12.32-12.4-12.32h-6.64c-.38,0-.7.31-.7.69v23.33c0,.38.31.69.7.69h6.58c7.88,0,12.46-5.72,12.46-12.39ZM97.11,45.59h8.8c.77,0,1.39-.62,1.39-1.39v-23.54c0-.68.88-.96,1.27-.4l17.31,24.74c.26.37.69.59,1.14.59h9.06c.77,0,1.39-.62,1.39-1.39V2.06c0-.77-.62-1.39-1.39-1.39h-8.87c-.77,0-1.39.62-1.39,1.39v22.27c0,.68-.87.96-1.26.4L108.06,1.26c-.26-.37-.68-.59-1.14-.59h-9.81c-.77,0-1.39.62-1.39,1.39v42.14c0,.77.62,1.39,1.39,1.39ZM281.13,46.4c12.05,0,18.72-5.99,18.72-15.02,0-10.17-10.24-12.32-17.64-13.87-4.98-.94-7.75-1.75-7.75-4.11,0-1.95,1.48-3.5,5.32-3.5,3.61,0,8,1.28,11.6,3.84.61.43,1.45.31,1.9-.29l4.67-6.11c.47-.61.35-1.49-.26-1.95C293.06,1.85,287.2,0,280.52,0c-11.52,0-17.91,6.53-17.91,14.08,0,10.64,10.37,12.53,17.78,14.01,4.78,1.01,7.68,2.02,7.68,4.58,0,2.16-2.42,3.84-6.4,3.84-5.45,0-9.99-2.13-13.2-4.87-.63-.54-1.58-.44-2.05.24l-4.51,6.39c-.41.59-.31,1.39.23,1.86,4.44,3.83,10.52,6.29,19,6.29ZM320.59,46.4c12.05,0,18.72-5.99,18.72-15.02,0-10.17-10.24-12.32-17.64-13.87-4.98-.94-7.75-1.75-7.75-4.11,0-1.95,1.48-3.5,5.32-3.5,3.61,0,8,1.28,11.6,3.84.61.43,1.45.31,1.9-.29l4.67-6.11c.47-.61.35-1.49-.26-1.95C332.53,1.85,326.66,0,319.99,0c-11.52,0-17.91,6.53-17.91,14.08,0,10.64,10.37,12.53,17.78,14.01,4.78,1.01,7.68,2.02,7.68,4.58,0,2.16-2.42,3.84-6.4,3.84-5.45,0-9.99-2.13-13.2-4.87-.63-.54-1.58-.44-2.05.24l-4.51,6.39c-.41.59-.31,1.39.23,1.86,4.44,3.83,10.52,6.29,19,6.29ZM227.5,45.59h30.15c.77,0,1.39-.62,1.39-1.39v-6.98c0-.77-.62-1.39-1.39-1.39h-19.26c-.38,0-.7-.31-.7-.7v-6.69c0-.38.31-.7.7-.7h18.79c.77,0,1.39-.62,1.39-1.39v-7.05c0-.77-.62-1.39-1.39-1.39h-18.79c-.38,0-.7-.31-.7-.7v-6.08c0-.38.31-.7.7-.7h19.26c.77,0,1.39-.62,1.39-1.39V2.06c0-.77-.62-1.39-1.39-1.39h-30.15c-.77,0-1.39.62-1.39,1.39v42.14c0,.77.62,1.39,1.39,1.39ZM88.94.67h-30.15c-.77,0-1.39.62-1.39,1.39v42.14c0,.77.62,1.39,1.39,1.39h30.15c.77,0,1.39-.62,1.39-1.39v-6.98c0-.77-.62-1.39-1.39-1.39h-19.26c-.38,0-.7-7.39-.7-7.39,0-.38.31-.7.7-.7h18.79c.77,0,1.39-.62,1.39-1.39v-7.05c0-.77-.62-1.39-1.39-1.39h-18.79c-.38,0-.7-.31-.7-.7v-6.08c0-.38.31-.7.7-.7h19.26c.77,0,1.39-.62,1.39-1.39V2.06c0-.77-.62-1.39-1.39-1.39Z"/><path d="M11.97,85.29c0,7.33,5.18,12.98,12.17,12.98,4.12,0,7.61-2.34,9.37-5.36.37-.63,1.13-.9,1.79-.59l7.43,3.52c.72.34,1.01,1.22.61,1.91-3.1,5.38-8.88,10.74-19.21,10.74-13.45,0-23.94-9.42-23.94-23.2,0-13.85,10.49-23.2,23.94-23.2,10.35,0,16.08,5.26,19.21,10.74.39.69.11,1.57-.61,1.91l-7.43,3.52c-.66.31-1.43.04-1.79-.59-1.76-3.02-5.25-5.36-9.37-5.36-6.99,0-12.17,5.65-12.17,12.98ZM87.92,62.83h-8.99c-.77,0-1.39.62-1.39,1.39v24.91c0,5.31-2.82,9.15-9.01,9.15-6.25,0-9.08-3.83-9.08-9.15v-24.91c0-.77-.62-1.39-1.39-1.39h-8.99c-.77,0-1.39.62-1.39,1.39v25.31c0,11.03,6.46,18.96,20.85,18.96,14.39,0,20.78-7.87,20.78-19.03v-25.24c0-.77-.62-1.39-1.39-1.39ZM311.26,62.83h-30.11c-.77,0-1.39.62-1.39,1.39v42.08c0,.77.62,1.39,1.39,1.39h30.11c.77,0,1.39-.62,1.39-1.39v-6.97c0-.77-.62-1.39-1.39-1.39h-19.23c-.38,0-.69-.31-.69-.69v-6.68c0-.38.31-.69.69-.69h18.76c.77,0,1.39-.62,1.39-1.39v-7.04c0-.77-.62-1.39-1.39-1.39h-18.76c-.38,0-.69-.31-.69-.69v-6.08c0-.38.31-.69.69-.69h19.23c.77,0,1.39-.62,1.39-1.39v-6.97c0-.77-.62-1.39-1.39-1.39ZM271.65,62.83h-13.72c-.58,0-1.1.36-1.3.91l-8.43,22.75c-.22.61-1.08.6-1.3,0l-8.36-22.74c-.2-.55-.72-.91-1.3-.91h-13.71c-.77,0-1.39.62-1.39,1.39v42.08c0,.77.62,1.39,1.39,1.39h8.79c.77,0,1.39-.62,1.39-1.39v-25.03c0-.77,1.07-.97,1.34-.24l9.62,25.76c.2.54.72.9,1.3.9h3.19c.58,0,1.1-.36,1.3-.9l9.68-25.78c.27-.72,1.34-.53,1.34.24v25.05c0,.77.62,1.39,1.39,1.39h8.79c.77,0,1.39-.62,1.39-1.39v-42.08c0-.77-.62-1.39-1.39-1.39ZM353.94,107.68h-10.03c-.53,0-1.01-.29-1.24-.77l-6.96-14.04c-.11-.24-.35-.39-.62-.39h-4.79c-.38,0-.69.31-.69.69v13.12c0,.77-.62,1.39-1.39,1.38h-8.79c-.77,0-1.39-.62-1.39-1.38v-42.08c0-.77.62-1.39,1.39-1.38h21.07c9.95,0,15.6,6.58,15.61,14.93,0,7.36-4.26,11.49-8.24,13.17-.38.16-.52.61-.32.97l7.61,13.72c.52.92-.15,2.06-1.21,2.06ZM344.32,77.63c0-3.1-2.56-5.04-5.58-5.05h-8.45c-.38,0-.69.31-.69.7v8.7c0,.37.31.69.69.69h8.45c3.03,0,5.59-1.95,5.58-5.04ZM378.89,79.64c-4.98-.94-7.73-1.75-7.73-4.1,0-1.95,1.48-3.5,5.31-3.5,3.61,0,7.99,1.28,11.58,3.83.61.43,1.44.31,1.9-.28l4.67-6.11c.47-.61.35-1.48-.26-1.95-4.62-3.53-10.48-5.38-17.14-5.38-11.5,0-17.89,6.52-17.89,14.05,0,10.63,10.36,12.51,17.75,13.99,4.77,1.01,7.67,2.02,7.67,4.57,0,2.15-2.42,3.83-6.39,3.83-5.44,0-9.98-2.13-13.18-4.86-.63-.54-1.57-.44-2.05.24l-4.5,6.38c-.41.58-.31,1.39.23,1.85,4.43,3.82,10.5,6.28,18.97,6.28,12.04,0,18.69-5.99,18.69-15,0-10.15-10.22-12.31-17.62-13.85ZM167.88,62.83h-33.87c-.77,0-1.39.62-1.39,1.39v7.31c0,.77.62,1.39,1.39,1.39h10.49c.38,0,.69.31.69.69v32.68c0,.77.62,1.39,1.39,1.39h8.79c.77,0,1.39-.62,1.39-1.39v-32.68c0-.38.31-.69.69-.69h10.43c.77,0,1.39-.62,1.39-1.39v-7.31c0-.77-.62-1.39-1.39-1.39ZM113.79,79.64c-4.98-.94-7.73-1.75-7.73-4.1,0-1.95,1.48-3.5,5.31-3.5,3.61,0,7.99,1.28,11.58,3.83.61.43,1.44.31,1.9-.28l4.67-6.11c.47-.61.35-1.48-.26-1.95-4.62-3.53-10.48-5.38-17.14-5.38-11.5,0-17.89,6.52-17.89,14.05,0,10.63,10.36,12.51,17.75,13.99,4.77,1.01,7.67,2.02,7.67,4.57,0,2.15-2.42,3.83-6.39,3.83-5.44,0-9.98-2.13-13.18-4.86-.63-.54-1.57-.44-2.05.24l-4.5,6.38c-.41.58-.31,1.39.23,1.85,4.43,3.82,10.5,6.28,18.97,6.28,12.04,0,18.7-5.99,18.7-15,0-10.15-10.22-12.31-17.62-13.85ZM216.91,87.26l-5.38,3.13c-.31.18-.69.17-.99-.01l-4.63-2.83c-.27-.17-.64-.03-.71.27-1.19,4.95-5.77,8.69-11.28,8.78-5.56.09-10.29-3.54-11.62-8.51-.06-.23-.2-.42-.41-.55l-5.12-3.13c-.3-.19-.69-.19-1,0l-5.43,3.21c-.32.19-.5.54-.44.9,1.67,11.39,11.97,20.1,24.23,19.89,12.26-.21,22.24-9.25,23.5-20.7.04-.38-.38-.64-.71-.44ZM170.51,83.25l5.29-3.13c.31-.18.69-.18,1,0l4.71,2.88c.27.17.64.03.71-.27,1.17-4.97,5.76-8.73,11.28-8.82,5.58-.09,10.33,3.58,11.64,8.57.06.23.2.43.41.55l5.04,3.08c.3.18.69.19.99.01l5.49-3.2c.32-.19.5-.54.45-.9-1.66-11.41-11.97-20.11-24.23-19.9-12.26.21-22.24,9.25-23.49,20.69-.04.38.38.64.72.44Z"/></svg>
