<svg width="33" height="32" viewBox="0 0 33 32" fill="none" xmlns="http://www.w3.org/2000/svg">
<g clip-path="url(#clip0_4869_5559)">
<path d="M12.2452 5.68927C12.2452 5.17162 11.8255 4.75195 11.3079 4.75195H9.43326C8.91562 4.75195 8.49595 5.17162 8.49595 5.68927V8.5012C8.49595 9.53462 9.33622 10.3758 10.3706 10.3758C11.4049 10.3758 12.2452 9.53462 12.2452 8.5012V5.68927ZM15.0571 12.2505H13.1825C12.6649 12.2505 12.2452 12.6701 12.2452 13.1878V15.9997C12.2452 17.0331 13.0855 17.8743 14.1198 17.8743C15.1542 17.8743 15.9945 17.0331 15.9945 15.9997V13.1878C15.9945 12.6701 15.5748 12.2505 15.0571 12.2505ZM5.68401 12.2505H3.80938C3.29174 12.2505 2.87207 12.6701 2.87207 13.1878V15.9997C2.87207 17.0331 3.71234 17.8743 4.7467 17.8743C5.78105 17.8743 6.62132 17.0331 6.62132 15.9997V13.1878C6.62132 12.6701 6.20166 12.2505 5.68401 12.2505Z" fill="url(#paint0_linear_4869_5559)"/>
<path d="M14.1199 4.75195H11.308V7.56389C11.308 8.08154 10.8883 8.50121 10.3706 8.50121C9.853 8.50121 9.43334 8.08154 9.43334 7.56389V4.75195H6.6214C6.10375 4.75195 5.68408 5.17149 5.68408 5.68927V12.2505H15.0572V5.68927C15.0572 5.17149 14.6375 4.75195 14.1199 4.75195Z" fill="url(#paint1_linear_4869_5559)"/>
<path d="M25.4923 16.9374L28.3042 19.7493L32.0535 17.8747V16.0001L28.3042 14.1255L25.4923 16.9374ZM3.80908 24.4359L5.85249 25.3732C6.22735 26.4604 7.27708 27.2478 8.49565 27.2478C9.71422 27.2478 10.764 26.4604 11.1388 25.3732L13.1822 24.4359L8.49565 20.6867L3.80908 24.4359ZM9.43296 24.4359C9.43296 24.9607 9.02061 25.3732 8.49565 25.3732C7.97069 25.3732 7.55834 24.9607 7.55834 24.4359C7.55834 23.9109 7.97069 23.4986 8.49565 23.4986C9.02061 23.4986 9.43296 23.9109 9.43296 24.4359ZM18.8061 24.4359L20.9745 25.3732C21.3493 26.4604 22.3991 27.2478 23.6176 27.2478C24.8362 27.2478 25.886 26.4604 26.2608 25.3732L28.3042 24.4359L23.6176 19.7493L18.8061 24.4359ZM24.555 24.4359C24.555 24.9607 24.1426 25.3732 23.6176 25.3732C23.0927 25.3732 22.6803 24.9607 22.6803 24.4359C22.6803 23.9109 23.0927 23.4986 23.6176 23.4986C24.1426 23.4986 24.555 23.9109 24.555 24.4359ZM30.1225 7.26426C30.0101 6.8894 29.6353 6.62695 29.2415 6.62695H25.4923L23.6176 14.7628L32.0535 12.8881L30.1225 7.26426Z" fill="url(#paint2_linear_4869_5559)"/>
<path d="M17.8689 12.25H15.057V15.0619C15.057 15.5796 14.6373 15.9993 14.1197 15.9993C13.602 15.9993 13.1824 15.5796 13.1824 15.0619V12.25H10.3704C9.85277 12.25 9.43311 12.6695 9.43311 13.1873V19.7485H18.8062V13.1873C18.8062 12.6695 18.3866 12.25 17.8689 12.25Z" fill="url(#paint3_linear_4869_5559)"/>
<path d="M8.49588 12.25H5.68394V15.0619C5.68394 15.5796 5.26427 15.9993 4.74663 15.9993C4.22898 15.9993 3.80931 15.5796 3.80931 15.0619V12.25H0.997372C0.479725 12.25 0.0600586 12.6695 0.0600586 13.1873V19.7485H9.43319V13.1873C9.43319 12.6695 9.01353 12.25 8.49588 12.25Z" fill="url(#paint4_linear_4869_5559)"/>
<path d="M27.3671 16.9374C27.3671 17.4622 27.7795 17.8747 28.3044 17.8747H32.0537V24.4359C32.0537 24.9536 31.634 25.3732 31.1164 25.3732H26.261C26.3678 25.0884 26.4239 24.8037 26.4294 24.4869C26.4515 23.1942 25.685 22.0902 24.4405 21.7398C22.5299 21.2017 20.8059 22.613 20.8059 24.4359C20.8059 24.7733 20.8622 25.0732 20.9747 25.3732H11.139C11.2458 25.0884 11.3019 24.8037 11.3074 24.4869C11.3295 23.1942 10.563 22.0902 9.31853 21.7398C7.40791 21.2017 5.68394 22.613 5.68394 24.4359C5.68394 24.7733 5.74024 25.0732 5.85272 25.3732H0.997372C0.479725 25.3732 0.0600586 24.9536 0.0600586 24.4359V19.7493H20.8059V7.56427C20.8059 7.04662 21.2256 6.62695 21.7432 6.62695H25.4925V11.9508C25.4925 12.4685 25.9122 12.8881 26.4298 12.8881H32.0537C32.0317 12.8661 32.0757 12.9101 32.0537 12.8881V16.0001H28.3044C27.7795 16.0001 27.3671 16.4124 27.3671 16.9374Z" fill="url(#paint5_linear_4869_5559)"/>
</g>
<defs>
<linearGradient id="paint0_linear_4869_5559" x1="9.43326" y1="4.75195" x2="9.43326" y2="17.8743" gradientUnits="userSpaceOnUse">
<stop stop-color="#00C0FF"/>
<stop offset="1" stop-color="#5558FF"/>
</linearGradient>
<linearGradient id="paint1_linear_4869_5559" x1="10.3706" y1="4.75195" x2="10.3706" y2="12.2505" gradientUnits="userSpaceOnUse">
<stop stop-color="#EAF6FF"/>
<stop offset="1" stop-color="#ADDCFF"/>
</linearGradient>
<linearGradient id="paint2_linear_4869_5559" x1="17.9313" y1="6.62695" x2="17.9313" y2="27.2478" gradientUnits="userSpaceOnUse">
<stop stop-color="#EAF6FF"/>
<stop offset="1" stop-color="#ADDCFF"/>
</linearGradient>
<linearGradient id="paint3_linear_4869_5559" x1="14.1197" y1="12.25" x2="14.1197" y2="19.7485" gradientUnits="userSpaceOnUse">
<stop stop-color="#EAF6FF"/>
<stop offset="1" stop-color="#ADDCFF"/>
</linearGradient>
<linearGradient id="paint4_linear_4869_5559" x1="4.74663" y1="12.25" x2="4.74663" y2="19.7485" gradientUnits="userSpaceOnUse">
<stop stop-color="#EAF6FF"/>
<stop offset="1" stop-color="#ADDCFF"/>
</linearGradient>
<linearGradient id="paint5_linear_4869_5559" x1="16.06" y1="6.62695" x2="16.06" y2="25.3732" gradientUnits="userSpaceOnUse">
<stop stop-color="#00C0FF"/>
<stop offset="1" stop-color="#5558FF"/>
</linearGradient>
<clipPath id="clip0_4869_5559">
<rect width="32" height="32" fill="white" transform="translate(0.0600586)"/>
</clipPath>
</defs>
</svg>
