<svg width="100" height="100" viewBox="0 0 100 100" fill="none" xmlns="http://www.w3.org/2000/svg">
<path d="M100 51.1369C99.2933 78.2209 77.1992 99.9654 50.035 100H49.9695C22.7686 99.9643 0.653381 78.1629 2.60808e-05 51.0275C-0.00108507 50.9539 0.0333605 50.8836 0.0933625 50.8401L2.73901 48.9368C2.75456 48.9234 2.77234 48.9111 2.79012 48.8999C2.87679 48.843 2.98012 48.8096 3.09235 48.8096C3.20458 48.8096 3.31458 48.8453 3.40347 48.9044L6.02689 50.8446C6.08134 50.8858 6.11467 50.9494 6.1169 51.0175C6.26579 56.5367 7.41916 61.8897 9.55034 66.9459C11.7626 72.193 14.9316 76.9067 18.9684 80.9566C23.0063 85.0053 27.7054 88.1839 32.9356 90.403C38.348 92.699 44.0993 93.8638 50.0328 93.8638C55.943 93.856 61.6732 92.6912 67.0656 90.4041C72.2969 88.185 76.9959 85.0065 81.0327 80.9577C85.0695 76.9078 88.2374 72.1941 90.4497 66.9471C92.5675 61.9232 93.7198 56.6059 93.8809 51.1246C93.8831 51.0342 93.9842 50.984 94.0565 51.0376L96.5421 52.8762L96.5832 52.9063C96.6743 52.9721 96.7866 53.0112 96.9077 53.0112C97.0199 53.0112 97.1232 52.9777 97.2099 52.9208C97.2277 52.9097 97.2455 52.8974 97.261 52.884L97.2721 52.8762L99.82 51.0431C99.8944 50.9885 99.9989 51.0431 99.9967 51.1369H100Z" fill="#C3D7EB"/>
<path d="M50.0283 0.25L50.6621 0.254883C77.4318 0.624886 99.0971 22.1813 99.748 48.9648L97.1152 50.8604L97.1064 50.8662L97.0977 50.874L97.0771 50.8887L97.0723 50.8906C97.0246 50.9219 96.9687 50.9404 96.9072 50.9404C96.8473 50.9404 96.786 50.9204 96.7363 50.8877L94.1318 48.9619C93.99 43.7637 92.9627 38.7115 91.0703 33.9141L90.6797 32.957C88.5939 28.0101 85.6621 23.5345 81.959 19.6387L81.208 18.8672C77.4011 15.0502 73.0091 12.0019 68.1406 9.79688L67.1611 9.36719C62.0576 7.20223 56.6542 6.03752 51.082 5.90039L49.9658 5.88574H49.9648C44.393 5.89315 38.9792 6.92325 33.8555 8.94727L32.835 9.36621C27.9026 11.4584 23.44 14.3983 19.5566 18.1123L18.7871 18.8662C14.9815 22.6842 11.9432 27.0892 9.74512 31.9727L9.31738 32.9561C7.22137 37.928 6.0667 43.1857 5.87598 48.6045L3.60352 46.9229L3.60254 46.9219L3.56152 46.8916L3.55957 46.8906L3.45508 46.8271C3.34526 46.771 3.22051 46.7393 3.08887 46.7393C2.96663 46.7393 2.85109 46.7659 2.74805 46.8145L2.64941 46.8701L2.5918 46.9111L2.58105 46.9189L2.5791 46.9209L0.258789 48.5889C1.09685 21.9801 22.6864 0.621656 49.3311 0.254883L49.9639 0.25H50.0283Z" fill="white" stroke="#999999" stroke-width="0.5"/>
<path d="M50.0005 9.51025C63.6115 9.52293 76.8578 16.4101 84.4604 28.7554V28.7563C84.5545 28.911 84.5064 29.1136 84.3521 29.2104L84.3423 29.2163L71.063 36.8853H71.062C70.9281 36.9626 70.7616 36.9367 70.6587 36.8315L70.6187 36.7808C66.3921 30.1775 59.462 26.2438 52.1323 25.5981L51.9937 25.5864L51.9106 25.6978L50.1089 28.1011C50.0602 28.1659 49.9697 28.1732 49.9106 28.1245L49.8872 28.1011L48.0835 25.6938L47.9995 25.5835L47.8618 25.5952C44.6198 25.8759 41.3854 26.8128 38.354 28.4526L37.7505 28.7896C34.2434 30.8152 31.4275 33.5779 29.3833 36.7681C29.2955 36.9044 29.1334 36.9578 28.9917 36.9097L28.9331 36.8823L15.6528 29.2153C15.5103 29.1324 15.4529 28.9613 15.5054 28.8149L15.5347 28.7544C18.8324 23.3885 23.4324 18.7206 29.1958 15.271L29.7573 14.9409C35.9461 11.3677 42.6832 9.61545 49.355 9.51514L50.0005 9.51025Z" stroke="#999999" stroke-width="0.5"/>
<path d="M85.1736 30.6582C85.3356 30.5651 85.5429 30.6225 85.6326 30.7832V30.7842C92.521 43.5419 91.8607 58.4601 85.0642 70.2588L85.0095 70.3516C81.6843 76.088 76.9092 81.0852 70.8376 84.7275L70.2429 85.0771C64.2174 88.5564 57.6697 90.3093 51.1716 90.4902C50.9888 90.4956 50.8328 90.3455 50.8328 90.1572V74.8193C50.833 74.6656 50.94 74.5336 51.0896 74.4971L51.156 74.4873C54.7043 74.3219 58.2663 73.3827 61.5876 71.5967L62.2488 71.2275C65.4545 69.3761 68.0823 66.9105 70.072 64.0654L70.1521 63.9512L70.0964 63.8232L68.8953 61.0576C68.863 60.9835 68.9019 60.9006 68.9734 60.874L69.0056 60.8662L71.9978 60.5225L72.1365 60.5059L72.1951 60.3799C75.2108 53.9145 75.3628 46.2251 72.0896 39.417L71.7625 38.7607C71.6945 38.6274 71.7293 38.4631 71.8425 38.3643L71.8953 38.3262L85.1726 30.6572L85.1736 30.6582Z" fill="white" stroke="#999999" stroke-width="0.5"/>
<path d="M14.698 30.8691L14.699 30.8701L27.9822 38.541C28.0109 38.5577 28.0244 38.5882 28.0222 38.6162L28.0144 38.6426V38.6436C24.5937 45.2809 24.2352 53.3389 27.574 60.4736L27.6921 60.7256L27.9675 60.7588L30.7996 61.0996L29.6785 63.7236L29.5691 63.9785L29.7283 64.207C34.0963 70.4616 40.9484 74.1463 48.1492 74.6924L48.8464 74.7354C48.8846 74.7372 48.9197 74.7701 48.9197 74.8145V90.1592C48.9175 90.2054 48.8793 90.2392 48.8376 90.2383L48.2058 90.2148C35.1646 89.6194 22.6834 82.6967 15.5007 70.7139L15.157 70.1299C8.03226 57.7879 8.18882 43.2406 14.2908 31.459L14.5857 30.9004C14.6014 30.8712 14.6344 30.8556 14.6667 30.8594L14.698 30.8691Z" fill="white" stroke="#C4C4C4"/>
</svg>
