<svg width="10" height="10" viewBox="0 0 10 10" fill="none" xmlns="http://www.w3.org/2000/svg">
<path d="M8.99826 4.96858H8.29199C8.14572 4.96858 8.02714 5.08716 8.02714 5.23343V8.45352C8.02714 8.62444 7.88804 8.7635 7.71713 8.7635H1.54585C1.37497 8.7635 1.23597 8.62444 1.23597 8.45352V2.28235C1.23597 2.1114 1.37497 1.9723 1.54585 1.9723H4.93082C5.07709 1.9723 5.19567 1.85372 5.19567 1.70745V1.00118C5.19567 0.854911 5.07709 0.736328 4.93082 0.736328H1.54585C0.693451 0.736328 0 1.42988 0 2.28235V8.45356C0 9.30603 0.693486 9.99951 1.54585 9.99951H7.71709C8.56956 9.99951 9.26308 9.30599 9.26308 8.45356V5.23346C9.26311 5.08716 9.14453 4.96858 8.99826 4.96858Z" fill="#1D1D1F"/>
<path d="M9.73528 0H6.92598C6.77972 0 6.66113 0.118583 6.66113 0.264851V0.971121C6.66113 1.11739 6.77972 1.23597 6.92598 1.23597H7.89018L4.2619 4.86418C4.15847 4.96762 4.15847 5.13529 4.2619 5.23875L4.7613 5.73819C4.81099 5.78788 4.87833 5.81578 4.94861 5.81578C5.01885 5.81578 5.08622 5.78788 5.13587 5.73819L8.76416 2.10991V3.07407C8.76416 3.22034 8.88274 3.33892 9.02901 3.33892H9.73528C9.88155 3.33892 10.0001 3.22034 10.0001 3.07407V0.264851C10.0001 0.118583 9.88155 0 9.73528 0Z" fill="#1D1D1F"/>
</svg>
