<?xml version="1.0" encoding="utf-8"?>
<!-- Generator: Adobe Illustrator 26.0.1, SVG Export Plug-In . SVG Version: 6.00 Build 0)  -->
<svg version="1.1" id="Layer_1" xmlns="http://www.w3.org/2000/svg" xmlns:xlink="http://www.w3.org/1999/xlink" x="0px" y="0px"
	 viewBox="0 0 417.9 163.6" style="enable-background:new 0 0 417.9 163.6;" xml:space="preserve">
<style type="text/css">
	.st0{fill:#4C9BB5;}
	.st1{fill:#76848F;}
</style>
<polygon class="st0" points="113.7,0 110.8,20.7 186.3,20.7 189.3,0 "/>
<polygon class="st1" points="315.7,0 235.6,79.7 233.2,96.2 247.9,96.2 344.6,0 "/>
<polygon class="st1" points="123.6,75.6 178.5,75.6 175.5,96.2 100,96.2 102.9,75.6 108.9,34.4 184.6,34.4 181.7,55 126.5,55 "/>
<polygon class="st1" points="206,0 192.3,96.2 205.7,96.2 281.7,20.6 252.8,20.6 218.8,54.4 226.6,0 "/>
<g>
	<path class="st1" d="M0,139.4h5.6l6.2,10l6.2-10h5.6v23.7h-5.2v-15.5l-6.7,10.1l0,0l-6.6-10v15.4H0V139.4z"/>
	<path class="st1" d="M35.8,151.3L35.8,151.3c0-6.8,5.3-12.3,12.6-12.3c7.3,0,12.6,5.5,12.6,12.2v0.1c0,6.7-5.3,12.3-12.6,12.3
		S35.8,158,35.8,151.3z M55.5,151.3L55.5,151.3c0-4.1-3-7.5-7.2-7.5s-7.1,3.3-7.1,7.4v0.1c0,4.1,3,7.4,7.2,7.4
		C52.6,158.7,55.5,155.4,55.5,151.3z"/>
	<path class="st1" d="M77.6,144.2h-7.2v-4.8H90v4.8h-7.2v18.9h-5.2L77.6,144.2L77.6,144.2z"/>
	<path class="st1" d="M101.7,139.4h5.2v23.7h-5.2V139.4z"/>
	<path class="st1" d="M119.2,151.3L119.2,151.3c0-6.8,5.3-12.3,12.6-12.3s12.6,5.5,12.6,12.2v0.1c0,6.7-5.3,12.3-12.6,12.3
		S119.2,158,119.2,151.3z M138.9,151.3L138.9,151.3c0-4.1-3-7.5-7.2-7.5s-7.1,3.3-7.1,7.4v0.1c0,4.1,3,7.4,7.2,7.4
		S138.9,155.4,138.9,151.3z"/>
	<path class="st1" d="M156.5,139.4h4.8l11.1,14.6v-14.6h5.1v23.7h-4.4L161.6,148v15.1h-5.1L156.5,139.4L156.5,139.4z"/>
	<path class="st1" d="M213.8,144.2h-7.2v-4.8h19.6v4.8H219v18.9h-5.2L213.8,144.2L213.8,144.2z"/>
	<path class="st1" d="M237.7,139.4h5.2v9.4h9.6v-9.4h5.2v23.7h-5.2v-9.5h-9.6v9.5h-5.2V139.4z"/>
	<path class="st1" d="M270.9,139.4h17.8v4.6H276v4.8h11.2v4.6H276v5h12.9v4.6h-18L270.9,139.4L270.9,139.4z"/>
	<path class="st1" d="M301,139.4h10.8c3,0,5.3,0.8,6.9,2.4c1.3,1.3,2,3.2,2,5.4v0.1c0,3.8-2.1,6.2-5.1,7.3l5.8,8.5h-6.1l-5.1-7.6
		h-4.1v7.6h-5.2v-23.7H301z M311.5,150.9c2.5,0,4-1.4,4-3.4l0,0c0-2.2-1.6-3.4-4.1-3.4h-5.2v6.8H311.5z"/>
	<path class="st1" d="M341,139.2h4.8l10.2,23.9h-5.5l-2.2-5.3h-10l-2.2,5.3h-5.3L341,139.2z M346.5,153.2l-3.1-7.7l-3.1,7.7H346.5z"
		/>
	<path class="st1" d="M367.1,139.4h9.7c5.7,0,9.1,3.4,9.1,8.2v0.1c0,5.5-4.3,8.3-9.6,8.3h-4v7.1h-5.2V139.4z M376.5,151.3
		c2.6,0,4.1-1.6,4.1-3.6v-0.1c0-2.3-1.6-3.6-4.2-3.6h-4v7.2h4.1V151.3z"/>
	<path class="st1" d="M403.5,153.8l-9.1-14.4h6.1l5.7,9.5l5.8-9.5h5.9l-9.1,14.3v9.4h-5.2L403.5,153.8L403.5,153.8z"/>
</g>
<g>
	<path class="st1" d="M262.1,92.9L262.1,92.9c0-1.8,1.5-3.4,3.3-3.4c1.9,0,3.3,1.5,3.3,3.3l0,0c0,1.8-1.5,3.3-3.3,3.3
		C263.5,96.2,262.1,94.7,262.1,92.9z M268.3,92.9L268.3,92.9c0-1.6-1.3-3-2.9-3c-1.7,0-2.9,1.4-2.9,3l0,0c0,1.6,1.3,3,2.9,3
		C267,95.8,268.3,94.5,268.3,92.9z M263.9,91h1.7c0.9,0,1.5,0.4,1.5,1.2c0,0.6-0.3,0.9-0.7,1.1l0.8,1.2h-1.1l-0.7-1H265v1h-1
		L263.9,91L263.9,91z M265.5,92.7c0.3,0,0.5-0.2,0.5-0.4c0-0.3-0.2-0.4-0.5-0.4h-0.6v0.8H265.5z"/>
</g>
</svg>
