<svg xmlns="http://www.w3.org/2000/svg" width="306" height="70" fill="none"><path fill="#5FD0DF" d="M96.974 25.37c-1.094.962-2.408 1.574-3.963 1.865l3.18 8.146h-7.985l-3.11-7.985h-3.19l-1.685 7.985h-7.985l4.484-21.287q.632-2.98-.21-5.327h18.628c1.946 0 3.44.502 4.474 1.515 1.033 1.013 1.384 2.277 1.063 3.802L98.99 22.07c-.261 1.244-.933 2.337-2.026 3.3zm-13.934-3.3h6.922c.28 0 .551-.111.812-.322.26-.21.411-.461.472-.742l1.233-5.859a.88.88 0 0 0-.16-.742.83.83 0 0 0-.682-.32h-6.922l-1.685 7.984zm38.52-7.113c.833.822 1.124 1.856.863 3.1l-2.738 12.99q-.376 1.82-2.167 3.07c-1.184.832-2.578 1.254-4.163 1.254h-8.657c-1.585 0-2.799-.422-3.632-1.254-.832-.833-1.123-1.866-.872-3.07l2.738-12.99q.391-1.867 2.167-3.1t4.153-1.234h8.657c1.585 0 2.799.411 3.631 1.234zm-5.808 3.962c.05-.23 0-.431-.13-.602a.68.68 0 0 0-.552-.26h-4.765c-.231 0-.451.09-.662.26q-.316.256-.391.602l-2.368 11.255c-.05.231 0 .432.131.602.13.17.321.261.552.261h4.765c.23 0 .451-.09.662-.26q.315-.257.391-.603zm16.522-.903-.913 4.324h9.741l-.683 3.25c-.06.291-.21.542-.461.762a1.23 1.23 0 0 1-.843.322h-8.657l-.732 3.46c-.05.231 0 .432.13.602a.67.67 0 0 0 .552.261h9.961c.321 0 .552.1.713.3.16.202.21.462.14.783l-.682 3.25h-12.991c-1.585 0-2.799-.41-3.631-1.233-.833-.823-1.124-1.856-.863-3.1l2.739-12.99c.341-1.616.281-3.05-.181-4.284v-.04h19.491l-.682 3.25c-.06.29-.221.542-.461.762a1.23 1.23 0 0 1-.843.321zm40.186-7.734c1.033 1.013 1.384 2.277 1.063 3.802l-1.685 7.985c-.311 1.495-1.204 2.749-2.659 3.782s-3.159 1.545-5.116 1.545h-9.309l-1.685 7.985h-7.985l4.484-21.287q.632-2.98-.211-5.327h18.629c1.946 0 3.44.502 4.474 1.515m-7.143 4.865a.88.88 0 0 0-.16-.742.83.83 0 0 0-.682-.32h-6.922l-1.685 7.984h6.921c.281 0 .552-.11.813-.32a1.28 1.28 0 0 0 .471-.743l1.234-5.859zm29.613-.19c.833.822 1.124 1.856.863 3.1l-3.652 17.314h-6.49l1.364-6.49h-6.49l-1.364 6.49h-6.491l3.652-17.315c.341-1.614.281-3.039-.181-4.283v-.04h15.158q2.38 0 3.631 1.234zm-6.992 9.59 1.184-5.628c.05-.23 0-.431-.131-.602a.68.68 0 0 0-.551-.26h-5.628l-1.364 6.49zm15.037 10.823h-6.49l3.651-17.313c.341-1.615.281-3.06-.17-4.334h7.573zm26.593-20.413c.833.822 1.124 1.856.863 3.1L226.78 35.37h-6.491l3.461-16.452c.05-.23 0-.431-.13-.602a.68.68 0 0 0-.552-.26h-5.628l-3.651 17.314h-6.49l3.651-17.315c.341-1.614.281-3.06-.17-4.333h15.147c1.585 0 2.799.411 3.631 1.234zm23.915 2.016q-.09.436-.481.753c-.261.21-.542.32-.823.32h-6.49l-3.652 17.315h-6.49l3.652-17.314h-6.491a.85.85 0 0 1-.692-.322.84.84 0 0 1-.16-.752l.682-3.25h21.647l-.682 3.25zm-3.491 18.397h-3.681l.772-3.68h3.682zm13.352-9.58.341-1.624a.53.53 0 0 0-.08-.412q-.12-.18-.391-.18h-3.21a.68.68 0 0 0-.452.18.7.7 0 0 0-.261.412l-1.615 7.664c-.03.16 0 .29.091.41.09.121.22.181.371.181h3.21q.268 0 .461-.18a.74.74 0 0 0 .251-.411l.341-1.625h4.424l-.461 2.206c-.171.823-.663 1.525-1.455 2.097-.803.572-1.746.853-2.849.853h-5.868c-1.104 0-1.926-.281-2.488-.853s-.752-1.264-.572-2.097l1.866-8.847c.17-.823.662-1.525 1.454-2.097.803-.572 1.746-.852 2.849-.852h5.869c1.103 0 1.926.28 2.488.852.561.572.752 1.264.571 2.097l-.461 2.207h-4.424zm20.514-4.323c.572.562.763 1.264.592 2.107l-1.866 8.848c-.17.822-.662 1.524-1.474 2.096-.813.572-1.756.853-2.829.853h-5.899c-1.083 0-1.906-.281-2.477-.853-.572-.572-.763-1.264-.592-2.096l1.866-8.848q.27-1.264 1.474-2.107t2.829-.842h5.899c1.083 0 1.905.28 2.477.842m-3.952 2.699c.03-.16 0-.291-.09-.412a.45.45 0 0 0-.372-.18h-3.24q-.24 0-.451.18a.7.7 0 0 0-.261.412l-1.615 7.664c-.03.16 0 .29.09.41a.45.45 0 0 0 .371.181h3.241q.24 0 .451-.18c.14-.12.231-.25.261-.411zm25.219-3.541-3.11 14.746h-4.123l2.147-10.172-4.675 7.223h-2.798l-1.495-6.601-2.016 9.55h-4.133l2.487-11.797q.346-1.656-.12-2.95h5.808c.221 0 .402.05.542.161.14.11.231.26.271.462l1.264 6.018 3.802-6.018c.12-.201.271-.352.461-.462.191-.11.391-.16.612-.16z"/><path fill="#FF5100" d="M74.182 40.507h4.625c1.183 0 1.635.572 1.434 1.775l-.421 2.358c-.22 1.203-.873 1.775-2.057 1.775h-2.798l-.522 2.97h-1.826zm3.561 4.233c.18 0 .241-.06.281-.25l.371-2.057c.03-.19-.03-.251-.2-.251h-2.468l-.441 2.558h2.467zm2.839 2.869.933-5.327c.2-1.203.863-1.775 2.046-1.775h3.21c1.184 0 1.636.572 1.435 1.775l-.933 5.327c-.22 1.204-.873 1.776-2.056 1.776h-3.21c-1.184 0-1.636-.572-1.425-1.776m4.595.1c.18 0 .25-.06.29-.25l.883-5.026c.02-.19-.03-.251-.2-.251h-2.548c-.18 0-.251.06-.281.25l-.883 5.026c-.04.191.01.251.19.251zm4.223-7.202h1.856l.18 6.52 2.739-6.52h1.565l.441 6.52 2.468-6.52h1.866l-3.732 8.878h-1.926l-.401-5.779-2.438 5.779h-2.006zm12.358 0h5.869l-.291 1.675h-4.043l-.321 1.836h3.27l-.29 1.645h-3.271l-.371 2.046h4.043l-.291 1.675h-5.868zm13.533 1.775-.381 2.147c-.181 1.003-.672 1.575-1.515 1.725l.913 3.23h-1.876l-.883-3.13h-1.485l-.561 3.13h-1.826l1.565-8.877h4.614c1.184 0 1.635.572 1.435 1.775m-2.037-.12h-2.457l-.442 2.478h2.458c.181 0 .251-.06.291-.251l.341-1.966c.04-.19-.01-.251-.191-.251zm7.183-1.655h1.826l-1.555 8.878h-1.826l1.565-8.878zm3.822 0h1.806l2.357 5.718 1.003-5.718h1.776l-1.565 8.878h-1.676l-2.447-5.919-1.043 5.919h-1.776zm11.967 0h4.625c1.183 0 1.635.572 1.434 1.775l-.421 2.358c-.221 1.203-.873 1.775-2.057 1.775h-2.798l-.522 2.97h-1.826zm3.571 4.233c.181 0 .241-.06.281-.25l.371-2.057c.031-.19-.03-.251-.2-.251h-2.468l-.441 2.558h2.467zm4.184-4.233h5.868l-.291 1.675h-4.043l-.321 1.836h3.271l-.291 1.645h-3.271l-.371 2.046h4.043l-.291 1.675h-5.868zm5.938 7.102.933-5.327c.201-1.203.863-1.775 2.046-1.775h3.211c1.183 0 1.635.572 1.434 1.775l-.933 5.327c-.221 1.204-.873 1.776-2.056 1.776h-3.21c-1.184 0-1.636-.572-1.425-1.776m4.595.1c.18 0 .25-.06.29-.25l.883-5.026c.02-.19-.03-.251-.2-.251h-2.548c-.181 0-.251.06-.281.25l-.883 5.026c-.04.191.01.251.191.251zm5.126-7.202h4.624c1.184 0 1.635.572 1.435 1.775l-.422 2.358c-.22 1.203-.872 1.775-2.056 1.775h-2.799l-.522 2.97h-1.825zm3.561 4.233c.18 0 .241-.06.281-.25l.371-2.057c.03-.19-.03-.251-.201-.251h-2.468l-.441 2.558h2.468zm4.293-4.233h1.826l-1.264 7.202h3.732l-.291 1.675h-5.558l1.565-8.877zm6.952 0h5.868l-.291 1.675h-4.042l-.321 1.836h3.27l-.291 1.645h-3.27l-.371 2.046h4.042l-.291 1.675h-5.868z"/><path fill="#5FD0DF" d="M184.517 44.8c.191-1.063.612-1.424 1.666-1.424s1.344.35 1.153 1.424c-.19 1.064-.612 1.425-1.665 1.425s-1.344-.351-1.154-1.425"/><path fill="#FF5100" d="M193.415 40.507h4.625c1.183 0 1.635.572 1.434 1.775l-.421 2.358c-.221 1.203-.873 1.775-2.057 1.775h-2.798l-.522 2.97h-1.826zm3.561 4.233c.181 0 .241-.06.281-.25l.371-2.057c.031-.19-.03-.251-.2-.251h-2.468l-.441 2.558h2.467zm10.343-2.458-.381 2.147c-.181 1.003-.673 1.575-1.515 1.725l.913 3.23h-1.876l-.883-3.13h-1.485l-.561 3.13h-1.826l1.565-8.877h4.614c1.184 0 1.635.572 1.435 1.775m-2.047-.12h-2.457l-.442 2.478h2.458c.181 0 .251-.06.291-.251l.341-1.966c.04-.19-.01-.251-.191-.251zm4.143-1.655h1.826l-1.555 8.878h-1.826l1.565-8.878zm3.812 0h4.795c1.164 0 1.625.572 1.425 1.775l-.943 5.327c-.211 1.204-.873 1.776-2.037 1.776h-4.795l1.565-8.878zm3.18 7.202c.191 0 .251-.06.291-.25l.883-5.026c.03-.19-.01-.251-.201-.251h-2.628l-.973 5.527zm5.136-7.202h5.869l-.291 1.675h-4.043l-.321 1.836h3.27l-.291 1.645h-3.27l-.371 2.046h4.043l-.291 1.675h-5.869zm10.523 0h1.826l-1.555 8.878h-1.826l1.565-8.878zm3.822 0h1.806l2.357 5.718 1.003-5.718h1.776l-1.565 8.878h-1.675l-2.448-5.919-1.043 5.919h-1.776zm11.978 0h4.624c1.184 0 1.635.572 1.435 1.775l-.422 2.358c-.22 1.203-.872 1.775-2.056 1.775h-2.799l-.521 2.97h-1.826zm3.561 4.233c.18 0 .241-.06.281-.25l.371-2.057c.03-.19-.03-.251-.201-.251h-2.467l-.442 2.558h2.468zm7.182 2.719h-2.959l-.863 1.925h-1.976l4.213-8.877h2.639l1.093 8.878H258.8zm-.16-1.676-.351-3.731-1.676 3.731zm5.086-5.276h1.825l-1.554 8.878h-1.826l1.565-8.878zm3.822 0h1.805l2.358 5.718 1.003-5.718h1.775l-1.565 8.878h-1.675l-2.447-5.919-1.044 5.919h-1.775zm10.332 1.655h-2.347l.281-1.645h6.52l-.281 1.645h-2.347l-1.284 7.233h-1.826zm5.788-1.655h1.826l-1.555 8.878h-1.826l1.565-8.878zm3.822 0h1.806l2.357 5.718 1.003-5.718h1.776l-1.565 8.878h-1.675l-2.448-5.919-1.043 5.919h-1.776zm7.484 7.102.932-5.327c.201-1.203.863-1.775 2.047-1.775h3.019c1.184 0 1.635.572 1.435 1.775l-.201 1.164h-1.826l.181-1.013c.03-.19-.01-.251-.201-.251h-2.357c-.181 0-.251.06-.281.25l-.883 5.026c-.04.191.01.251.191.251h2.357c.191 0 .251-.06.291-.25l.241-1.375h-1.615l.281-1.595h3.441l-.542 3.12c-.221 1.204-.873 1.776-2.057 1.776h-3.019c-1.184 0-1.635-.572-1.424-1.776zM4.073 18.518l.822-2.317c-.541 1.284-1.193 2.518-1.565 3.862.251-.522.432-1.063.743-1.545m7.513-11.426.06-.12s-1.003 1.103-1.615 1.936c.512-.602 1.355-1.324 1.967-1.906.642-.512 1.083-.903.772-.973-.592.461-1.073.853-1.184 1.063M12.78 6.03s.051-.04.082-.071c-.041.02-.061.04-.102.06h.02zm.1-.081s-.01 0-.02.01c.803-.442 1.184-.903 2.087-1.505-.682.391-1.425.993-2.067 1.485zm1.806-.993c.32-.322-1.976 1.434-1.996 1.625.37-.211 1.254-1.144 1.535-1.054 1.474-.953-.933.331.45-.571zm2.769-1.636-.422.482a21 21 0 0 1 1.997-.993c-.402.09-.261-.14-1.585.511zm3.592-1.804s.02-.051.02-.082c-.142.082-.122.092-.02.082m-1.014.902c-.351.13-.672.26-.993.4.17-.04.451-.14.993-.39z"/><path fill="#FF5100" d="M20.213 2.237c.381-.351 1.766-.652 1.946-.923-.09-.06-.862.17-1.113.2-.19.462-1.906.693-1.013.894.451-.171.953-.362 1.655-.653l-1.465.472zM29.603.29c-.562-.03-1.174-.05-1.816.081.28-.02.582-.04.893-.06.3 0 .612-.01.913-.03zm-5.397.613c-.351.1-.712.2-1.064.29.642-.13.933-.22 1.064-.29m0 0c.501-.14 1.003-.271 1.515-.361l-.452-.15c-1.685.33-.682.33-1.063.51m28.348 10.454c-.07-.15-.31-.442-.622-.793 0 .12.14.351.622.792M2.036 27.817v-.01zM9.56 9.55s-.03.05-.05.07c.1-.13.15-.19.05-.07m34.167 49.986v-.05l-.341.17c.11-.04.22-.08.34-.13zm-.03-.17.03.12c.171-.12.222-.19-.03-.12m-2.749 1.144 1.385-.482c.03.17.05.25-.813.552.23 0 .963-.382 1.384-.572l-.32.1c.17-.12.51-.28.802-.431-1.244.431-2.307.36-2.438.842zm-1.956.661c.552-.14 1.876-.491 1.404-.602zm-2.237.191c1.705-.12.732-.23 1.675-.512-.29.07-.562.15-.792.221.893-.06-.552.19-.893.291zm2.087-.632c-.171.05-.291.08-.412.12.13-.03.271-.07.412-.12m12.67-7.744h-.131c-.04.07-.02.09.13 0m-17.765 8.486h-.11q-.212 0-.452.03zM48.903 7.714s.11.09.212.151c-.081-.05-.141-.1-.212-.15"/><path fill="#FF5100" d="M62.205 23.835c-.18-.221-.351-.572-.522-1.034-.19-.451-.421-.983-.632-1.605-.381-1.254-1.013-2.718-1.645-4.283-.752-1.505-1.545-3.1-2.528-4.414-.24-.33-.471-.662-.692-.983-.251-.3-.512-.572-.763-.843-.501-.531-.973-1.003-1.414-1.374-2.317-2.096-3.852-2.789-2.227-1.143-3.23-2.639-2.147-2.338-5.226-4.073.411.08.792.21 1.204.32-.462-.36-.964-.752-1.535-1.083a15 15 0 0 0-1.906-1.023l-1.756-.31c-.933-.522-1.846-.793-2.698-1.034-.432-.12-.843-.24-1.264-.321-.422-.06-.843-.12-1.264-.17C36.494.351 35.64.22 34.709.2c-.933-.05-1.926-.19-3.07-.2.341.03.572.05.742.07-.33-.04-.862-.08-.832 0 .32 0 .642.02.953.03h.09c-.29 0-.602 0-.933.02a.4.4 0 0 1-.11-.06h-.15l.12.03c-.522.1-1.194.15-1.886.18.17 0 .34.02.511.02.281.021.542.041.803.071-.24.04-.391.09-.311.15-.17-.03-.472-.07-.813-.09l-1.043.03c-.28 0-.522.01-.672 0l-.12-.05s.07-.02.15-.04c-.07 0-.14.01-.21.02l-.1-.04c-.442.03-.844.06-1.165.08.211 0 .382.01.462.04-.14.02-.281.03-.411.05-.13.03-.261.06-.382.09l-.36-.06a7 7 0 0 0-.984.392c-.3.08-.612.16-.903.23-.42.111-.802.292-1.193.422-.763.29-1.495.522-2.147.762-.642.261-1.244.452-1.796.552-.401.24-.822.451-1.204.742-2.006 1.325-3.741 2.117-5.507 3.471l-.1.351c-1.073.983-2.94 2.87-3.872 3.752-1.154 1.324-2.227 2.97-3.08 4.765l-.11.17a.6.6 0 0 0 .07-.09c-.07.14-.14.281-.21.432-.221.491-.432.993-.653 1.484-.19.502-.34 1.024-.501 1.525-.04.13-.08.25-.12.381l-.03-.18c-.562.912-1.355 3.36-1.726 5.667-.01-.12-.08.02-.27.652a52 52 0 0 0-.121 3.802c0 .04-.01.08-.02.13 0 .101.01.161.02.201.01.773.05 1.545.11 2.328l-.09-.361c.04.43.09.892.16 1.364.09.893.221 1.795.392 2.678.2.843.31 1.706.591 2.508.13.391.251.772.382 1.154l-.251-.11c.451.902.913 2.226.752 2.487-.491-1.505-1.013-2.307-1.294-3.03-.3-.722-.542-1.313-.652-2.287.16.211.08.1.09-.11-.17-.371-.34-.923-.511-1.565-.14-.652-.341-1.394-.281-2.167l.2.562-.09-1.856c-.03-.622-.08-1.254-.02-1.875.08-1.244.07-2.458.25-3.562-.22.622-.25-.07-.12-1.083.291-1.525.04.482.261-.14.191-.442.382-1.335.552-2.268.08-.461.16-.943.23-1.364.101-.421.211-.782.312-1.043-.05.341 1.173-2.729.622-.783.411-1.133.862-2.066 1.193-2.939.321-.883.803-1.575 1.355-2.177.05-.25.17-.862.531-1.434l.18.18.332-.752a8.7 8.7 0 0 1 1.414-1.475c.482-.38.943-.782 1.415-1.454-.2.24-.612.722-.742.672-.03-.13.46-.772.892-1.364.462-.562.883-1.033.542-.933-.29.351-.602.692-.853 1.083.18-.501-1.003.863-.872.492-.392.491-.833.933-1.184 1.454L6.25 12.52l-.211-.06.612-.642c.31-1.134-1.114 1.435-1.816 2.277l.13.11c-.922 1.345-1.103 1.625-1.243 1.846-.15.22-.271.371-.923 1.565-.06.281-.14.542-.18.823-.03.12.852-2.277 1.052-2.127-.652 1.605-1.574 3.782-1.865 5.608-.04-.502-.02-.994.01-1.495 0 .642-.723 1.635-1.134 3.43l.532-1.484c.04.692-.301 1.745-.452 2.93-.1.591-.19 1.203-.29 1.805-.07.602-.05 1.183-.03 1.705.03-.562.06-1.123.19-1.204.09.482-.05 1.796-.16 2.578C.26 30.035.26 28.8.28 27.678c.06-1.124.23-2.147 0-1.916-.09.591-.18 1.163-.19 1.715.01.552.04 1.083.07 1.575s.06.953.07 1.384c.03.432.08.823.07 1.194-.1-.391-.21-.783-.301-1.174.03.382.09.763.13 1.154v-.341c.231.481.05 1.474.17 2.387l-.28-.592c0 .572.09 1.134.18 1.706l.04-.22c.121.681.242 1.333.362 1.975.1.642.3 1.244.441 1.856.16.602.261 1.214.442 1.806q.27.873.541 1.775l-.4-1.414c.09.1.38.843.58 1.495.071-.251-.59-1.947-.42-1.856a31 31 0 0 1 .732 2.427c.19.642.431 1.274.893 2.378.19.17-.301-1.545.622.15-.301-.02.491 1.485-.362.472 1.004 1.364.512 1.183 1.425 2.197-.1-.13-.21-.352-.331-.572-.11-.442.481.532.752.903.331.702.472 1.133 1.204 2.166.562.693 1.244 1.274 1.856 1.906.05.1-.07.05-.07.05l.662.693.712.642 1.394 1.274c.963.762 1.886 1.454 2.669 1.936.27.03.922.32-.211-.422.983.422 2.107 1.325 3.05 1.957-.332-.06-.633-.171-.943-.261 2.798 1.565 6.36 3.18 9.289 3.55l-.492-.3c.672.17 1.354.21 2.006.331.652.09 1.284.24 1.886.29 1.204.091 2.257.161 3.01.121-1.003-.19-.642-.21.02-.21.672-.05 1.655-.1 1.946-.15-.502 0-1.074.02-1.645.06-.572.04-1.144-.01-1.665 0-.893 0-1.596 0-1.756-.04l.07.03c-1.214-.101-2.437-.211-3.651-.392l.09-.24c-.16.25-1.354-.121-2.428-.462-1.063-.381-1.966-.853-1.725-.482-.983-.33-1.294-.682-1.103-.762-.903-.301-1.766-.712-2.659-1.063-.24-.231.422-.191.712-.03.512.24 1.184.531 1.866.802.692.23 1.375.492 1.836.803.913.16-.712-.522 1.214.05.802.28 1.655.541 2.528.782.883.18 1.775.301 2.638.431.863.151 1.715.11 2.478.191.381.03.752.06 1.103.09l.983.03c-.551-.06-1.103-.03-.41-.2l1.644.12c1.364-.08 2.007-.592 3-.552.32-.21-2.408.251-3.29.1.13-.06.26-.09.39-.13.332-.04.663-.1.994-.14h.07c.903-.04 1.866.04 2.708-.361.17-.13-.11-.12-.541-.06.471-.13.933-.271 1.374-.392q.406-.12.782-.24c.241-.1.472-.2.703-.301.36-.16.682-.301.983-.442.23-.08.451-.16.612-.25.08.12-.382.42-.973.712-.612.23-1.355.461-1.776.562.752-.03 2.147-.432 2.849-.753-.462.11-.893.281-1.364.341.993-.3 1.324-.592 1.705-.822.19-.12.381-.241.672-.382.291-.13.672-.28 1.214-.531 1.735-.903.562.02 1.184-.15 1.916-1.114.682-.352.491-.572.773-.402 1.214-.713 1.756-.994.531-.29 1.133-.601 2.026-1.324-.983.893-1.234 1.154-2.378 1.776h.402c-.682.381-1.706.953-2.679 1.384l-.36.15c-.151.06-.302.121-.422.191-.732.331-1.264.612-1.264.753-.12.03-.18.05-.29.07.34.18.962.25 1.815.21.421-.02.903-.06 1.424-.13.522-.07 1.053-.23 1.635-.381 1.485-.853 2.689-1.886 3.692-2.779.772-.481 1.414-1.053 2.046-1.565.652-.501 1.174-1.073 1.675-1.625.492-.562 1.004-1.063 1.395-1.655l1.184-1.715c.41-.552.692-1.204 1.053-1.806.33-.622.722-1.224 1.013-1.926.311-.682.652-1.384 1.013-2.117.301-.762.632-1.564.993-2.417.301-.773.472-1.545.693-2.287.1-.371.22-.733.29-1.104.07-.37.13-.732.191-1.093.11-.723.28-1.425.331-2.127s.11-1.394.16-2.086c.08-2.769 0-5.528-.611-8.637zM48.25 6.63s.02.02.03.02a5 5 0 0 1-.843-.341c.231.07.492.17.813.32M36.033 59.727s.04-.01.07-.02h.07c-.05 0-.09.02-.14.02M3.09 21.929l-.12.551-.191.552c.05-.29.17-.682.31-1.103M1.876 25.59l.24-1.113c.07.16.241-.201.412-.522-.03.18-.06.351-.08.492a4 4 0 0 0-.03.963c.04.511.09.973.03 2.698-.221 1.073-.12 2.578-.1 3.962.15 1.375.27 2.649.24 3.32a27 27 0 0 0-.481-2.527c-.13-1.425-.181-2.829-.09-4.183-.05.792-.161.863-.272.872q0-.39.06-.842c-.1.391-.1-.03-.08-.702.12-.422.02.922.321-.19.08-1.074.251-2.118.341-3.12-.13 1.444-.43 2.056-.632 2.628 0-.181.02-.372.02-.562.04-.472.09-.903.1-1.174m55.193 19.601-.12.331c-.071.11-.131.211-.191.322-.05.04.08-.221.31-.653m-2.348 3.662s.02-.03.03-.05c.05-.06.09-.12.14-.18-.07.1-.12.17-.16.24zm-2.287 3.611c-2.648 2.077-1.695 1.786-3.772 3.33-.25.151-.602.362-.872.522-.271.13-.442.18-.291.04-.01 0-.03.02-.04.02.29-.21.571-.42.842-.621.321-.261.602-.562.903-.843.582-.592 1.244-1.144 1.926-1.946h.26c.061-.07.793-.753 1.766-1.816l-.782.963c1.204-1.144.361-.03.07.351zm8.025-16.762c-.08.541-.15 1.053-.21 1.565-.07.501-.191.983-.281 1.454-.09.482-.19.953-.281 1.435-.12.471-.281.933-.432 1.414-.16.482-.31.973-.511 1.485-.23.491-.482.993-.763 1.525-1.434 2.297-2.297 4.112-3.009 4.393a25 25 0 0 0 1.816-2.678c2.157-3.501 3.13-7.323 2.849-6.892-.04.15-.803 2.659-2.047 4.986-.15.31-.33.602-.501.893l.02-.18s.05-.091.07-.141c.23-.371.421-.913.682-1.465.24-.572.562-1.163.773-1.796.953-2.507 1.414-5.065 1.123-3.721-.26-.23.22-1.264-.07-1.264.17-1.324.31-2.378.441-3.35.06-.984.14-1.866.22-2.77-.42 3.763-1.363 7.966-3.35 12.059-.17.481-.29.922.09.31.382-1.093.823-1.534.593-.712-.462 1.174-.14-.22-.602 1.204l.37-.612c-.31.662-.5 1.184-.681 1.625a9 9 0 0 0-.462 1.264c-1.655 2.398-3.48 4.845-5.688 6.822-.511.541-1.103.973-1.675 1.414s-1.123.903-1.745 1.244a49 49 0 0 1-1.786 1.033 33 33 0 0 1-1.826.732l-.722.512-.762.441c-.12-.08-.351-.16-1.134.19.301-.09.803-.27.712-.18-.621.211-1.213.482-1.845.642l-1.896.492.421.03c-.31.03-.672.13-1.073.21-.402.07-.843.141-1.274.221-.442.08-.883.15-1.294.2-.422.051-.813 0-1.154-.04 0 .091-.863.191-.772.312-.492-.02-.983.02-1.475-.01l-1.495-.1c-.501-.04-1.003-.03-1.504-.09a47 47 0 0 1-1.104-.161 23 23 0 0 1-1.665-.582c2.066.532 3.22.532 4.223.572.502.03.983-.04 1.535-.1.552-.07 1.174-.111 1.976-.221-.572-.02-1.143-.1-1.705-.15l1.374-.121c-.351-.1-.08-.17.25-.291.332-.13.713-.261.603-.351-.803.13-1.625.07-2.438.09-.411 0-.812.03-1.224 0l-1.213-.11c2.598.411.882.471.07.602l-1.274-.15c-.422-.061-.843-.181-1.254-.262.572.2 2.127.582.26.351-.51-.12-1.103-.21-1.725-.32a10 10 0 0 1-1.745-.562c.702.04 1.374.16 2.076.13-.782-.06-1.484-.31-2.156-.512-.331-.12-.673-.22-.983-.36l-.923-.462c-1.244-.572-2.368-1.324-3.832-1.886l-.562-.883c-.813-.501-1.635-1.003-2.378-1.625l.351.08-1.334-1.083c-.421-.391-.812-.803-1.223-1.204a14 14 0 0 0-.863-.722c-.21-.2-.381-.341-.522-.452-.28-.21-.451-.27-.612-.34-1.003-1.054-1.775-2.227-2.056-2.74l1.173 1.225-.812-1.304c.532.912-.883-.953-1.104-1.274l-.892-1.656c-.16-.4-.251-.641-.341-.852-.16-.422-.231-.712-.562-1.746-.421-1.033-.813-2.227-1.013-3.18-.18-.963-.341-1.665-.522-1.695-.592-4.063-.29-8.476.772-12.198l.271-1.705c.502-1.054.843-1.987 1.264-2.81.442-.812.763-1.594 1.194-2.326.451-.723.843-1.495 1.384-2.278.281-.38.582-.782.893-1.203.16-.211.321-.432.492-.652.19-.211.39-.422.591-.642l-.19.34c.552-.681 1.053-1.424 1.665-2.076.732-.552 1.314-1.063 1.856-1.525.582-.42 1.093-.822 1.625-1.233.512-.442 1.134-.773 1.816-1.164.35-.19.712-.391 1.113-.602.421-.18.883-.341 1.384-.522.532-.2 1.024-.421 1.485-.602.472-.15.913-.3 1.324-.43.412-.141.783-.282 1.134-.412s.682-.2.993-.311c1.224-.401 2.066-.803 2.799-1.074.561-.11 1.163-.2 1.775-.27.622-.02 1.254 0 1.886.03.311.01.622.03.933.04.301.03.602.08.903.12.582.08 1.144.16 1.645.21l-1.334.041 1.645.341c2.849.482 3 .532 6.6 1.675 1.204.482 2.007.943 2.639 1.214.632.281 1.093.401 1.435.532.26.08.491.14.722.19.562.452 1.203.994 1.996 1.545-.24-.21.01-.18.27-.03q.378.316.813.692l.883.823c.15.13.291.26.432.391.2.24.41.482.621.712v-.14c.211.21.412.421.582.622 0-.07.03-.1.08-.11.342.44.552.722.793 1.033.23.3.461.612.742 1.173 1.314 1.886 2.649 4.244 3.722 6.631.411 1.244.953 2.418 1.154 3.601.12.582.24 1.144.35 1.686.06.541.08 1.063.101 1.544-.06 1.214-.411-1.193-.441-.692.621 2.077.892 3.461 1.243 4.244.201.451.392.682.582.772.02.512.04 1.013.1 1.445-.21 1.354-.25 2.548-.47 3.62z"/><path fill="#5FD0DF" d="m31.85 30.616.421-.02.08-.07c.13-.07.231-.161.321-.271l.07-.09-.02-.121a.43.43 0 0 0-.11-.21l-.1-.191h-.422l-.35.431v.06l-.02.06z"/><path fill="#5FD0DF" d="M61.763 67.23a1 1 0 0 0-.411-.21c-.481-.16-.803-.432-.983-.833a1.07 1.07 0 0 0-.953-.622 3.2 3.2 0 0 0-.983.05q-.135.045-.24.03c-.041 0-.081 0-.111-.01h-.05a.6.6 0 0 0-.201-.07 3 3 0 0 1-1.144-.692 3 3 0 0 0-.501-.421 12 12 0 0 1-.863-.723c-.02-.02-.04-.03-.05-.05-.381-.582-.853-1.113-1.495-1.214-.13-.1-.26-.2-.391-.31-.08-.342-.421-.713-.471-.673-.16-.05-.311-.11-.462-.17-.562-.451-1.976-1.605-3.782-3.06-.642-.582-1.424-1.294-1.775-1.665-.08-.08-.15-.16-.231-.23l.24.28c-.23-.11-.42-.21-.631-.31-5.237-4.224-11.777-9.5-11.928-9.61a14 14 0 0 0-.39-.352l-.151-.11a6 6 0 0 0-.452-.432c-.19-.23-.39-.471-.602-.692a20 20 0 0 0-1.103-1.173 10 10 0 0 1-1.685-1.926c-.12-.171-.11-.291 0-.432l.08-.09c.27-.301.491-.612.642-.953q.27-.526.752-.873c.09-.07.17-.15.231-.23.22-.211.431-.432.642-.663l.14-.19c.02-.05.05-.1.07-.13a5.8 5.8 0 0 0 1.686-1.616c.2-.25.401-.481.612-.712.05-.07.11-.13.16-.17.231-.171.402-.372.472-.582a4.3 4.3 0 0 1 .993-1.224c.27-.23.532-.492.762-.782.311-.382.632-.743.953-1.104l.743-.893c.25-.3.481-.602.662-.903.19-.26.391-.511.592-.752l.632-.752c.37-.412.722-.843 1.053-1.304a62 62 0 0 0 1.174-1.816 27 27 0 0 1 .702-1.053 20 20 0 0 0 1.494-2.91c0-.03.02-.06.07-.13l.492-1.123c.07-.11.13-.231.17-.331.171-.231.282-.482.322-.743l.07-.451c.17-.813.18-1.696.03-2.608 0-.04-.01-.1 0-.201.04-.411-.01-.843-.14-1.264a7 7 0 0 0-.462-1.154l-.2-.571a2.46 2.46 0 0 0-.883-1.064c-.341-.23-.692-.441-1.044-.622l-.07-.04-.08-.03c-.14-.04-.2-.1-.23-.13s-.06-.07-.091-.21c-.29-.834-.863-1.496-1.695-1.967-.11-.08-.231-.16-.401-.311a1.5 1.5 0 0 1-.231-.17l-.14-.09a1.66 1.66 0 0 0-.763-.402 12 12 0 0 0-2.227-.331 10 10 0 0 0-2.347.21c-.723.151-1.455.342-2.157.552-.973.301-1.946.662-2.9 1.064l-.932.38c-.11.061-.22.131-.341.232a.9.9 0 0 1-.301.18c-.512.1-.953.281-1.304.532-.12.07-.22.14-.321.19a40 40 0 0 0-2.759 1.686 24 24 0 0 0-3.039 2.447l-.753.622-.07.07-.18.1a5 5 0 0 0-.612.563c-.1.09-.201.2-.301.32-.12.151-.271.291-.452.432a1.2 1.2 0 0 0-.411.602c-.06.24-.16.401-.291.471s-.331.07-.642 0c-.28-.04-.512.02-.682.17-.18.151-.26.362-.26.613l.02.08c0 .2.03.401.09.612.07.25.21.491.43.702.141.15.272.311.392.532l.381.551c.11.11.23.241.371.382.18.18.372.31.552.37.24.101.401.252.502.452.15.391.451.652.832.763.261.08.512.13.763.13q.18.045.33.03h.161l.06-.14c.05-.1.08-.18.1-.241q.151-.437.362-.783c.11-.18.3-.29.582-.34.39-.07.702-.291.922-.723 0 .07.01.14.01.18-.15.954-.32 1.897-.501 2.85-.12.561-.23 1.143-.341 1.725-.11.482-.21.973-.311 1.485-.14.692-.27 1.424-.391 2.177-.01.1-.02.2-.02.3 0 .13.04.261.12.412.04.07.07.14.06.18 0 .08-.02.15-.05.2l-.02.151v.03c-.1.442-.11.923-.02 1.415l.07.361-.13.19a1.62 1.62 0 0 0-.231 1.435l-.26.562a1 1 0 0 1-.121.2c-.06.1-.11.191-.15.251-.472.472-.713 1.074-.703 1.776a.94.94 0 0 0 .291.742l-.08.833a8 8 0 0 1-.14.993l-.09.431.26-.02.411 2.528.15-2.769c0-.08.02-.14.05-.2q.076-.18.091-.422c0-.18-.05-.38-.16-.591l-.361-.672c.13.09.3.16.481.2l.341.08v-.33c.02-.362.07-.713.17-1.034a6.3 6.3 0 0 0 .141-1.826v-.15l.24-.371c.282-.412.362-.913.221-1.495l-.09-.381.13-.12a.67.67 0 0 0 .231-.402l.743-3.1c.12-.34.22-.702.32-1.063v.08c-.09.432-.16.853-.22 1.305a4.6 4.6 0 0 1-.371 1.665c-.02.07-.04.15-.05.25l.02.171c-.05.301-.09.602-.11.903a6.3 6.3 0 0 1-.362 1.655 1.9 1.9 0 0 0-.04 1.535c-.01.02-.03.04-.04.06-.11.14-.18.281-.24.472a20 20 0 0 0-.211 2.006c-.02.25-.1.461-.251.622a1.58 1.58 0 0 0-.391.893q-.045.496-.03.993v.481l.03.17c.01.07.01.111.03.121-.11.15-.191.311-.231.472-.04.15-.06.31-.06.461 0 .09-.02.18-.06.321-.01.09-.02.2-.03.391.02.08.02.17.02.22-.171.864-.352 1.706-.532 2.549l-.12.692c-.1.642-.241 1.264-.432 1.866-.08.26-.13.522-.17.782l-.201-.38.05-.091-.03-.02c.04-.1.07-.21.07-.321q0-.195-.06-.422c.1-.19.19-.45.26-.792.091-.431.101-.803.041-1.114l-.341-1.805-.26 1.765c-.02.16-.071.331-.131.502-.16.411-.231.863-.211 1.344-.05.12-.09.251-.12.381-.03.14-.02.281.02.422l-.09.14.03.02c-.07.12-.12.241-.14.361-.031.14-.061.291-.081.452h-.05l.01.27c0 .161-.01.312-.07.452-.04.11-.13.2-.301.3a.56.56 0 0 0-.201.232c-.03.05-.05.12-.08.22q-.06.362-.09.662c-.131.953-.121-3.28-.231-2.347l-.06.642c.02.492-.09.963-.301 1.374-.03.05-.06.1-.08.181-.02.07-.02.14-.01.18.07.633 0 1.224-.181 1.796q-.105.358-.211.793c-.05.32-.1.662-.15.993a30 30 0 0 0-.532 3.17c0 .1-.01.19-.03.3-.03.462-.05.944-.07 1.405-.03.19-.04.401-.03.602 0 .381-.05.762-.12 1.194v.431c0 .15-.02.3-.051.451 0 .03-.02.12-.2.201l-.07.03-.051.07c-.04.06-.08.14-.1.231-.03.11-.03.21-.01.311l.05.25c.04.512.09 1.014.16 1.546.2.692.712.993 1.364.842.06-.01.11-.02.171-.04.2.431.562.702 1.033.773.13.04.271.12.412.25l.09.06c.21.141.421.231.642.261.29.04.582-.01.863-.17.11-.06.21-.1.3-.1.06 0 .141.02.231.06.21.17.412.18.552.15.11-.02.381-.11.451-.461.06-.2.09-.401.1-.582a1.6 1.6 0 0 0-.08-.592c-.07-.23-.09-.451-.06-.682l.13-1.575c0-.14 0-.28.04-.441.051-.652.081-1.294.101-1.896.05-.462.09-.943.11-1.405.02-.18.05-.36.07-.572.04-.41.04-.832.02-1.263-.04-.773.02-1.545.171-2.288.05-.18.09-.37.1-.592.02-.04.04-.09.05-.14v-.04l.01-.04c0-.12.02-.24.05-.442 0-.17 0-.34.041-.501.02-.12.09-.22.2-.301.08-.06.181-.17.211-.371.02-.11.01-.231 0-.301-.02-.502.04-.973.18-1.435l.101-.37c0-.101.02-.202.04-.312a.8.8 0 0 0-.08-.501 1.16 1.16 0 0 1-.19-.622c0-.251.03-.502.05-.712l.05-.171a.7.7 0 0 0 .02-.25l.341 2.387c.04-.392.08-.793.14-1.234.03-.422.08-.853.13-1.294.081-.572.191-1.184.322-1.806.05-.21.08-.421.09-.582.01-.05.04-.11.04-.13a.33.33 0 0 0 .07-.24c.03-.081.05-.161.06-.212.1-.28.171-.531.211-.772.04-.28.13-.341.16-.361.061-.03.171 0 .312.06.401.17.762.391 1.033.612l.823.822a12.3 12.3 0 0 0 1.615 1.445v.01l.07.11c.05.06.09.11.14.191.14.21.281.381.442.522.15.14.34.23.591.26l.673.693.09.09c.02.07.09.13.16.17v-.03s.03.02.04.03c.04.03.09.08.141.12.02.03.06.051.06.091-.05.02-.04.08-.09.05l.08.08s.04 0 .02-.04c.07 0 .09.05.11.1-.01.03.161.081.322.131.02.02.04.03.06.05-.18-.08-.351-.15-.301-.13 0 .04.22.14.431.23q.24.196.512.422s.02.01.03.02v.07c.15.03.25.17.381.251.02.02.04.04.07.05-.07.02-.15.04-.24.02v-.03s-.1-.04-.13 0c.06.09.13.14.25.17 0 .02.02.05.02.07 0 0 0-.01.01-.02 0 .051 0 .051-.02.061h-.01c-.05.16.371.18.471.361.06.02.02-.02.09 0 .111.17.181.291.322.442.09-.01.11-.03.09-.13l.1.11c-.22.05.11.31-.11.35 0 .06.07.12.16.151.03-.03.09-.08.17 0 .081.14.061.1.121.22-.01.06-.06.05-.09.091.19.06.05.2.2.311.1.06.272.19.342.12.11.1.07.16 0 .211l.09.09a10 10 0 0 1-.913-.822c.482.832 1.114 1.735 2.117 1.595-.19.35.38 1.033.451.973q.27.09.542.21c1.103.502 2.006 1.405 2.94 2.348.52.511 2.005 1.825 2.517 2.387.08.08.15.16.23.23l-.24-.28c.421.2.802.391 1.154.582-.02-.09 0-.14-.08-.301l.13.16c.25 0 .572.271.772.342-.09.04.03.15.13.25v-.08c.382.361.903.692 1.274 1.003.05.04.07.1.08.14l.392.231c-.1.07.23.311.02.231.351.11.572.391.903.492a27 27 0 0 0 2.99 2.036v-.05c.38.21.802.26 1.153.642.04.01.08.03.12.04.361.25.712.512 1.084.742.22.14.43.291.642.462a19 19 0 0 0 1.956 1.173l.562.281a8.3 8.3 0 0 0 1.584.692c.462.14.923.211 1.355.201.471-.01.912-.18 1.304-.492.06-.05.14-.11.23-.16l.06-.06c.171-.21.382-.341.593-.412.11-.02.2-.07.27-.16l.04-.07s.04-.06.08-.08c.091-.04.181-.07.352-.1.2-.06.34-.161.431-.302.07-.11.12-.24.13-.37v-.091c.06-.19 0-.381-.17-.522zM19.752 51.14a5.6 5.6 0 0 0-.271 1.615c-.03.281-.06.552-.1.843 0 .11-.03.22-.08.37-.05.222.05-4.744.03-4.553-.02.12-.01.23 0 .31.02.382-.04.763-.171 1.144-.14.381-.23.803-.26 1.244-.051.462-.101.943-.161 1.435q-.075.737-.15 1.414c-.111.782-.232 1.555-.362 2.347-.03.19-.06.372-.1.562l.13-1.274c.08-.943.17-1.896.27-2.829.131-.862.282-1.725.452-2.568l.191-1.173a.6.6 0 0 0 0-.331c0-.693-.05 3.801.1 3.12.16-.823.281-1.646.351-2.438l.06-.552.302.22c0 .382-.08.743-.221 1.104zm1.755.03-.02.08s-.02-.06-.03-.08v-.09c.02-.1.04-.21.06-.281.05-.12.09-.25.09-.341 0-.01 0-.02.01-.04v.08c.02.23-.02.451-.12.672zm1.324-7.553c-.1.531-.2 1.023-.31 1.474-.02-.12-.03-.23-.03-.341.01-.341.07-.692.16-1.043.03-.12.05-.23.07-.351.07.04.1.07.1.08.03.04.02.11 0 .18zm1.405-7.494-.24.803-.071-.07c.09-.302.2-.613.31-.913l.02.02v.02c0 .07-.02.12-.02.15zm4.383-21.949c.141-.1.291-.21.432-.29.14-.06.28-.131.411-.221a11.6 11.6 0 0 1 2.759-1.304l.812-.371a8.8 8.8 0 0 1 1.736-.562c.22-.05.451-.11.702-.19a3.5 3.5 0 0 1 .903-.222l.832-.05c.311-.04.632-.06.973-.08h.12c-.25.07-.51.12-.782.17-.25.07-.511.121-.782.161-.542.11-1.063.24-1.545.381a12.4 12.4 0 0 0-1.776.642c-.08.04-.17.07-.33.1l-3.371 1.395-.492.3c-.17.091-.38.141-.571.161h-.02v-.03zm.612 23.955c-.13.14-.28.281-.44.422l-.101.13c-.1.1-.17.21-.22.331-.181.371-.292.441-.282.452 0 0-.13-.04-.391-.271-.02-.1 0-.15.02-.17.06-.111.14-.212.25-.322.382-.381.763-.792 1.144-1.214.191-.18.382-.37.572-.581l.502-.552h-.2s.02-.03.03-.06c.02-.06.04-.16.07-.301l.1-.462-.482.07c-.36.06-.622.261-.742.602l-.05.14-.14.05a3.5 3.5 0 0 0-.512.442l-.753.863q-.345.39-.692.843-.045.06-.12.09c-.04-.02-.07-.05-.11-.07-.191-.1-.372-.19-.512-.261-.07-.04-.09-.06-.09-.06s0-.04.02-.09l.14-.181c.06-.04.11-.1.17-.16l.171-.231a1.45 1.45 0 0 0 .442-.883c0-.04.03-.09.07-.14.05-.06.11-.131.18-.191.04-.02.08-.05.11-.08l.332-.241c.22-.13.421-.291.632-.522.14-.22.25-.491.31-.802.02-.12.07-.251.111-.372l.361-.922-.843.531a5.2 5.2 0 0 0-1.153.983c-.15.211-.311.392-.502.542.07-.31.16-.622.261-.963.18-.803.391-1.595.622-2.357.13-.392.21-.793.21-1.174l.101-.732q.09-.406.21-.753c.07-.2.151-.411.221-.652.261-.993.512-1.986.733-2.959.04-.23.07-.461.08-.682.02-.19.04-.401.04-.592.1-.482.22-.973.381-1.495 0-.07.03-.15.05-.23.08-.201.14-.412.181-.622.13-.361.24-.743.341-1.144.12-.742.331-1.465.602-2.177.11-.34.18-.722.22-1.123.01-.21.03-.412.04-.572a.86.86 0 0 0-.05-.532c-.06-.12-.13-.24-.24-.38l-.06-.081c-.11-.19-.1-.25-.1-.25s.03-.071.21-.151c.14-.08.3-.15.471-.231.432-.18.863-.401 1.264-.632a17 17 0 0 1 2.749-1.164c.401-.12.802-.28 1.184-.451.32-.14.662-.281 1.003-.391a11.6 11.6 0 0 1 2.849-.512c.13-.01.2.03.24.06.05.04.1.09.13.241.222.853.222 1.655 0 2.388l-.03.07c-.02.07-.03.12-.04.17-.01.07 0 .15.01.251.111.421.03.772-.26 1.103q-.105.18-.12.392c-.02.04-.04.07-.05.12-.04.13-.07.25-.07.341a3.4 3.4 0 0 1-.151.532c-.19.401-.281.842-.281 1.334 0 .26-.11.481-.391.702-.02.02-.05.04-.08.05l-.08.04c-.202.16-.382.341-.553.532-.17.2-.27.451-.29.732a7.6 7.6 0 0 0-.823 1.315 10.4 10.4 0 0 1-1.124 1.534 38 38 0 0 0-1.023 1.274c-.18.281-.381.562-.602.833q-.677.813-1.354 1.595l-.812.993.09.462h.3c.603-.02 1.024-.291 1.215-.753.09-.14.2-.26.29-.33a1 1 0 0 0 .301-.252l.472-.471c.14-.16.27-.321.411-.462l.19-.03-.02-.14q.151-.135.302-.21a4.17 4.17 0 0 0 1.575-1.716c.11-.16.26-.301.461-.442.15-.14.28-.3.391-.461.261-.311.542-.612.843-.893.28-.27.552-.572.802-.883 0 0 .04-.04.14-.07-.15.361-.31.712-.46 1.003-.04.04-.08.07-.131.08l-.2.121s-.09.02-.121.04c-.09.04-.14.12-.15.21q-.422 1.009-1.415 1.566a.6.6 0 0 0-.19.16 19 19 0 0 1-1.515 2.117 17 17 0 0 0-1.124 1.514 8.5 8.5 0 0 1-.812.944c-.08.1-.16.19-.271.29-.13.16-.261.301-.412.462-.15.19-.31.36-.47.541-.111.13-.161.311-.151.532v.07c-.241.08-.412.201-.482.331-.28.281-.552.542-.832.793l-.03.03c-.06.08-.141.16-.221.25l-.612.02.35.282-.24.29h.04a8 8 0 0 0-.742.944l-.351.511.832-.05c.231.05.352-.03.402-.1.3-.341.581-.682.852-1.023l.07-.09-.04-.191h.03l.11-.03a2.75 2.75 0 0 0 1.014-.773c.12-.12.23-.24.331-.351a.43.43 0 0 0 .09-.22c.01-.07 0-.151 0-.231l-.04-.201c.09-.04.19-.07.321-.1.17-.06.321-.13.462-.211.17-.1.29-.26.35-.482l.442-.4c.23-.211.411-.432.552-.693.18-.371.441-.642.822-.853a3.04 3.04 0 0 0 1.144-1.474c.08-.18.21-.341.391-.472.231-.16.482-.32.773-.491l-1.495 1.986c-.11.17-.22.351-.311.522-.19.27-.391.521-.592.772a19 19 0 0 1-1.414 1.635l-1.706 1.916-.551.582c-.281.29-.552.592-.793.893l-1.053 1.123-.301.382c-.14.18-.311.36-.512.551q-.302.343-.622.642z"/></svg>