<?xml version="1.0" encoding="UTF-8"?><svg id="Layer_1" xmlns="http://www.w3.org/2000/svg" viewBox="0 0 120 120"><defs><style>.cls-1{fill:#44be46;}.cls-2{fill:#b4e5b5;}</style></defs><path class="cls-1" d="M57.19,10.07c-2.51-2.93-6.28-4.24-9.94-4.37-3.66-.13-7.28.78-10.85,1.7-4.4,1.12-9.09,2.44-12.07,6.16-1.9,2.38-2.87,5.51-3.38,8.63-2.06,12.69,3.43,26.47,13.32,33.41,3.61,2.53,8.34,4.16,12.09,1.9,3.49-2.11,4.86-6.75,5.93-10.96,2.39-9.42,11.17-27.85,4.9-36.46Z"/><path class="cls-1" d="M8,78.82c-.19.3-3.35,5.65-1.14,10.34.34.73.84,1.5,1.88,2.21,2.03,1.38,5.08,1.82,7.74,2,14.75,1,29.5,1.99,44.24,2.99,2.57.17,5.39.28,7.4-1.14,2.96-2.08,2.63-6.26,1.46-9.55-.99-2.79-6.15-16.04-24-19.4-14.36-2.7-25.91,3.09-28.05,4.17-6.24,3.13-8.64,6.91-9.54,8.38Z"/><path class="cls-2" d="M62.75,96.45c-.34,23.59,36.72,23.59,36.37,0,.34-23.59-36.72-23.59-36.37,0Z"/><g id="_97"><path d="M23.11,36.74c.58,4.37,1.87,9.16,4.73,13.27,7.58,10.9,24.62,12.71,30.75-2.3,1.32-3.24,1.95-6.71,2.54-10.16,5.33-.88,6.14-9.2,2.42-11.07,1-3.41,1.19-7.13.44-10.71-1.23-5.92-5.5-11.03-10.89-13.01-4.31-1.59-9.55-.87-13.58,1.55.18-.78.46-1.54.86-2.23.38-.67.15-1.51-.52-1.9-.66-.38-1.51-.15-1.9.52-.54.94-.92,1.94-1.15,2.98-.25-.24-.53-.45-.83-.63-.66-.39-1.51-.18-1.91.48-.39.66-.18,1.51.48,1.91.26.16.49.38.67.63-3.04-.37-6.35.66-8.82,2.89-2.69,2.42-4.39,6.07-4.81,10.28-.21,2.16-.07,4.29.22,6.25-5.56.69-4.69,9.84,1.29,11.25ZM30.12,48.41c-2.87-4.13-4.35-9.57-4.64-16.97,7.84.69,20.18-5.09,25.31-12.42,1.12,5.06,3.12,9.93,7.34,12.79.14,3.36-.71,9.8-2.55,14.1-5.43,12.74-18.67,12.27-25.46,2.5ZM60.83,34.76c.14-1.58.15-1.95.21-2.84.57-.86,1.07-1.76,1.5-2.71,1.11,1.65.63,4.99-1.71,5.55ZM24.37,19.51c.34-3.51,1.73-6.52,3.9-8.48,2.38-2.15,5.74-2.85,8.35-1.76.55.23,1.18.08,1.58-.36,3.24-3.67,9.37-5.22,13.95-3.53,4.51,1.66,8.09,5.96,9.13,10.96.91,4.39.19,9.18-1.87,12.95-4.23-3.08-5.71-8.88-6.61-14.8-.1-.64-.63-1.13-1.28-1.18-.64-.05-1.24.37-1.43.99-2.34,7.95-16.73,15.33-24.72,14.35-.02,0-.05,0-.07,0-.88-3.65-1.18-6.53-.92-9.15ZM22.32,28.23c.11.52.23,1.02.35,1.49-.07.65.08,3.12.12,3.77-3.06-2.26-2.05-5.37-.47-5.26Z"/><path d="M117.84,74.64c-1.76-.43-4.07-1.43-6.09-2.05.07-1.95-.1-4.18.07-5.97.11-1.16-1.19-1.94-2.16-1.28-2.24,1.52-5.04,3.87-7.19,5.32-.34.23-.56.6-.6,1.01-.25,2.51-.27,4.51-.28,6.44,0,.48-.01.96-.02,1.45l-2.73,2.36c-4.58-4.38-11.72-6.5-16.98-6.5-3.25,0-6.33.73-9.11,2.01C53.81,49.98,14.47,59.42,1.27,90.61c-.51,1.17.35,2.58,1.53,2.68.01,0,.03,0,.04,0l1.59,3.35c15.73,1.29,36.9,1.65,55.59,1.65.49,11.04,9.39,20.49,20.81,21.6,10.76,1.05,20.24-5.86,23.41-14.9,2.46-7,1.03-15.19-3.56-21l2.63-2.27c2.28.43,6.8,1.69,7.69,1.69.07,0,1.3.08,2.19.15,2.27-1.79,3.56-3.34,5.45-5.53,0-.43.09-.98.12-1.51.4-.9-.15-1.71-.91-1.9ZM104.57,72.58c1.4-.99,2.93-2.2,4.39-3.31.01,1.22.06,2.6-.04,3.92l-4.55,3.93c.01-1.43.05-2.86.2-4.55ZM70.28,78.76c-4.89,3.06-8.49,7.98-9.78,13.78-5.05.08-10.85.11-15.96.07,1.03-1.52,1.69-2.41,2.98-4.78.19-.36.22-.78.08-1.16-1.25-3.27-3.12-7.68-4.44-11.37,1.39-.42,2.69-1.32,3.51-2.44.7.85,1.41,1.67,2.12,2.46.6.66,1.67.6,2.17-.14,2.15-3.11,3.2-3.88,6.38-7.57,4.93,2.37,8.98,5.5,12.94,11.14ZM44.87,70.55c-.8,1.05-1.78,2.41-3.58,2.24-2.15-.18-2.59-2.31-2.8-2.64,1.16-1.35,2.4-2.63,3.74-3.82.78,1.52,1.68,2.91,2.64,4.22ZM41.42,78.65c1.11,2.9,2.39,5.98,3.34,8.43-1.31,2.35-1.97,3.11-3.1,4.85-1.32-1.88-1.68-2.68-3.4-5,.82-2.44,2.04-5.36,3.16-8.27ZM54.67,66.46c-2.2,2.51-3.4,3.65-4.96,5.72-2.07-2.38-4.06-5.04-5.47-8.15,4.17.25,7.15,1.15,10.44,2.43ZM40.69,64.03c-2.76,2.41-5.21,5.14-7.26,8.18-1.71-1.65-3.26-3.45-4.71-5.33,3.81-1.45,7.91-2.61,11.97-2.85ZM26.04,67.99c2,2.67,4.25,5.16,6.72,7.4.65.59,1.66.43,2.11-.3.53-.85,1.09-1.68,1.67-2.48.69,1.22,1.83,2.18,3.15,2.65-.59,1.66-1.26,3.42-1.95,5.16-.9,2.28-1.75,4.44-2.36,6.34-.14.43-.06.9.22,1.26,1.56,2.04,2.04,2.91,3.11,4.53-10.08-.14-24.41-.62-34.45-1.87,4.87-10.91,13.13-18.82,21.77-22.69ZM81.85,78.2c5.57,0,10.58,2.41,14.07,6.23l-4.5,3.89c-2.4-2.55-5.8-4.16-9.57-4.16-7.25,0-13.15,5.9-13.15,13.15s5.9,13.15,13.15,13.15,13.15-5.9,13.15-13.15c0-2.48-.7-4.79-1.9-6.77l4.56-3.94c2.08,3.06,3.29,6.74,3.29,10.71,0,10.54-8.57,19.11-19.11,19.11s-19.11-8.57-19.11-19.11,8.57-19.11,19.11-19.11ZM84.59,94.22c-.73-.65-1.68-1.06-2.74-1.06-2.29,0-4.14,1.86-4.14,4.14s1.86,4.14,4.14,4.14c2.42,0,4.45-2.11,4.09-4.72l5.04-4.35c.8,1.47,1.25,3.15,1.25,4.93,0,5.72-4.65,10.37-10.37,10.37s-10.37-4.65-10.37-10.37,4.65-10.37,10.37-10.37c2.93,0,5.58,1.23,7.47,3.2l-4.73,4.09ZM105.92,79.46l4.88-4.22s0-.02.02-.02c1.5.46,2.78.96,3.99,1.38-1.45,1.33-2.9,2.65-4.27,3.93-1.08-.21-1.59-.35-4.62-1.07Z"/></g></svg>